HIERARCHY
ROOT Spine
{
    OFFSET 0.0 0.0 -0.0
    CHANNELS 6 Xposition Yposition Zposition Zrotation Xrotation Yrotation
    JOINT ShoulderCenter
    {
        OFFSET 0.0 32.58971405029297 0.0
        CHANNELS 3 Zrotation Xrotation Yrotation
        JOINT LeftShoulder
        {
            OFFSET 20.107494354248047 0.0 0.0
            CHANNELS 3 Zrotation Xrotation Yrotation
            JOINT LeftElbow
            {
                OFFSET 30.087493896484375 0.0 0.0
                CHANNELS 3 Zrotation Xrotation Yrotation
                JOINT LeftHand
                {
                    OFFSET 33.49507141113281 0.0 0.0
                    CHANNELS 3 Zrotation Xrotation Yrotation
                    End Site
                    {
                        OFFSET 13.398027420043945 0.0 0.0
                    }
                }
            }
        }
        JOINT RightShoulder
        {
            OFFSET -20.107494354248047 0.0 0.0
            CHANNELS 3 Zrotation Xrotation Yrotation
            JOINT RightElbow
            {
                OFFSET -30.087493896484375 0.0 0.0
                CHANNELS 3 Zrotation Xrotation Yrotation
                JOINT RightHand
                {
                    OFFSET -33.49507141113281 0.0 0.0
                    CHANNELS 3 Zrotation Xrotation Yrotation
                    End Site
                    {
                        OFFSET -13.398027420043945 0.0 0.0
                    }
                }
            }
        }
        End Site
        {
            OFFSET 0.0 13.035886764526367 0.0
        }
    }
    JOINT LeftHip
    {
        OFFSET 16.707097066464144 -16.707097066464144 0.0
        CHANNELS 3 Zrotation Xrotation Yrotation
        JOINT LeftKnee
        {
            OFFSET 0.0 -42.941261291503906 0.0
            CHANNELS 3 Zrotation Xrotation Yrotation
            JOINT LeftFoot
            {
                OFFSET 0.0 -45.53948211669922 0.0
                CHANNELS 3 Zrotation Xrotation Yrotation
                End Site
                {
                    OFFSET 0.0 0.0 18.215791702270508
                }
            }
        }
    }
    JOINT RightHip
    {
        OFFSET -16.707097066464144 -16.707097066464144 0.0
        CHANNELS 3 Zrotation Xrotation Yrotation
        JOINT RightKnee
        {
            OFFSET 0.0 -42.941261291503906 0.0
            CHANNELS 3 Zrotation Xrotation Yrotation
            JOINT RightFoot
            {
                OFFSET 0.0 -45.53948211669922 0.0
                CHANNELS 3 Zrotation Xrotation Yrotation
                End Site
                {
                    OFFSET 0.0 0.0 18.215791702270508
                }
            }
        }
    }
}
MOTION
Frames: 8
Frame Time: 0.03333333333333333
-7.500000476837158 10.699999809265137 -15.700000762939453 -10.652186561534304 5.805066234671322 26.98696806353219 -4.96387494966461e-07 1.9663607572690506e-07 16.836429816269295 129.13860779893665 38.552752832135084 175.58561259835486 6.37127840202655e-06 -1.1791067308982506e-06 55.44722495222274 0.0 0.0 0.0 -114.89751432553705 6.6040993341023855 148.22975621692046 3.0699057182998956e-06 2.423743217869668e-06 -54.73239094984757 1.590277340731758e-15 0.0 0.0 7.1365015075312215 -30.879535378991097 37.390442564608186 15.206940515134196 19.167351811775752 -55.84466679682755 -1.987846675914698e-16 1.2424041724466862e-17 -7.702905869169454e-16 5.165059209768309 -21.654144766753266 -22.635239803324485 -4.759618365932308 20.67057317299961 50.73769058587957 -7.951386703658791e-16 -1.3914926731402884e-15 6.708982531212104e-16
-7.0 10.40000057220459 -15.700000762939453 -9.956740896744234 6.167757076840829 27.49479822284667 -7.756211962948855e-07 -7.092310449473182e-07 14.877641232925903 127.79178721476279 36.951486029877834 177.28413828021246 6.928298776600189e-07 -9.704343192044061e-07 56.59447299121267 7.951386703658792e-16 -6.3611093629270335e-15 4.4139062980501586e-32 -116.41261398417319 8.644262531127222 150.95609551196162 2.183571460077442e-06 1.1517601769856864e-06 -55.51913248473206 0.0 6.361109362927033e-15 0.0 6.011235009684922 -31.28237896804641 37.019418755478284 15.074381183133045 20.29114156810805 -57.03775792551062 0.0 0.0 1.987846675914698e-16 3.89967300091122 -21.877765940535905 -22.003809557798593 -4.499948874751828 21.625877742724715 51.74094113878368 7.951386703658792e-16 4.6552917987247765e-33 6.708982531212105e-16
-6.300000190734863 10.100000381469727 -15.700000762939453 -8.853433049293919 5.974655734458751 27.910574698580543 3.17754550261376e-07 -4.5227490310355535e-07 12.88531428474545 127.047295525619 35.05125395123627 178.8124822426842 4.439159829708106e-06 -3.935429941221194e-07 58.00628343775025 -3.975693351829396e-15 -1.9878466759146985e-16 7.951386703658792e-16 -117.4499168757175 10.948267541100654 154.71194363676372 -9.810660477203223e-07 2.005665789037642e-06 -56.837094883669316 0.0 0.0 0.0 4.984482629502504 -30.59982648656146 36.353211350845406 13.977439940266795 21.292946458809972 -56.77997330634573 -3.9756933518293955e-16 4.969616689786744e-17 2.161783260057234e-15 2.399765962198726 -21.651674329471668 -22.721787077243974 -5.298698259822974 23.24720287739503 56.24289991919815 3.975693351829396e-16 -1.9878466759146985e-16 -8.150171371250262e-15
-5.5 9.700000762939453 -15.80000114440918 -7.606298546132462 5.625741088213972 29.5245490160674 -2.562132128585623e-07 1.5470749631800194e-08 10.110279975662442 125.52054370755815 33.39746291430903 -178.62947898426475 2.2756974647531857e-06 -5.218251278896791e-07 58.982447852548106 3.975693351829395e-16 6.361109362927032e-15 1.9878466759146972e-16 -118.4146797678205 14.003674237165695 158.73331590203665 -1.2491432643132195e-06 8.932759834320832e-08 -57.9212269664875 3.531125038440127e-31 -6.3611093629270335e-15 6.3611093629270335e-15 3.0941522180073844 -29.66253059561124 33.532885249608654 12.794505316584472 22.2532562958223 -55.56801971446198 2.9095573742029856e-33 -4.47265502080807e-16 7.454425034680116e-16 0.3705925980883727 -21.495126518038344 -23.3060987933599 -5.867931841136642 25.601458876695517 61.003823348545794 1.4655548255244668e-32 -1.987846675914698e-16 8.448348372637467e-15
-4.699999809265137 9.300000190734863 -15.899999618530273 -6.534808774806442 5.097289798609553 31.24437660032047 -5.234794530020608e-08 -1.9058086621609745e-07 7.091859753951803 124.65512729623826 30.683238114766116 -175.63716250430446 -5.323680885591508e-07 5.387659854987165e-07 59.84670101681775 1.5902773407317588e-15 0.0 0.0 -119.58554165582653 16.964142563279864 162.62618476114505 6.450447858367131e-06 -1.3465305366029642e-07 -58.936156442167 0.0 0.0 0.0 1.7492941033120197 -28.71487641952723 30.42173885675212 10.913979468853446 23.57761578024885 -53.05063579399983 -2.586273221513765e-34 9.93923337957349e-17 2.981770013872047e-16 -1.930034735122173 -22.197561251708056 -28.23818722959264 -9.391825355444373 29.480124105591113 72.71795577280255 -8.103656094076463e-33 1.987846675914698e-16 4.67143968839954e-15
-3.799999952316284 9.199999809265137 -16.200000762939453 -5.114696318229185 4.744760217286392 32.69825246994779 1.8281454023448044e-07 -1.1541712863100393e-07 4.324925090480621 122.739477474354 29.01234618111547 -172.18288389092757 -4.525001499112901e-06 3.678945368733967e-06 60.49572767751266 7.951386703658791e-16 -6.162324695335563e-15 4.275971726236091e-32 -120.8202083625466 20.349242641379004 166.70837073174835 -1.8913419951710083e-08 -2.9146203413229152e-06 -59.61744370939814 -6.3611093629270335e-15 7.062250076880254e-31 -1.2722218725854067e-14 -0.20959189041569642 -27.339738195863085 27.249786998613125 8.859410958680298 23.854591080116908 -50.26074276360214 0.0 0.0 -8.94531004161614e-16 -4.80387496385403 -23.808439141097708 -35.64264512547689 -16.598011105362794 33.50474139471567 88.19748283775776 7.951386703658792e-16 -1.987846675914698e-15 2.3854160110976376e-15
-3.0 9.5 -16.200000762939453 -3.8725757374408145 3.6886317580737216 35.01120009856737 3.6501850433705786e-07 3.569426415563718e-07 0.5889399472037378 121.54093548569152 27.31478761519583 -168.7966983665847 -7.983634616685888e-07 -5.3325748246691487e-08 60.46489896610925 -1.5902773407317584e-15 6.7586786981099735e-15 9.379550883356588e-32 -121.38064435052189 23.607734783421005 171.3058814561364 -3.5441742196126806e-06 -5.950727201503153e-07 -60.36001069202299 0.0 3.1805546814635168e-15 0.0 -2.094145390416719 -24.126304274694803 19.74378553173795 5.014211178281193 22.848530316443824 -42.769798198485326 0.0 0.0 -2.025118801088098e-15 -7.676625710492198 -25.88741985134835 -47.96399637326665 -30.527038026748556 35.11263202547478 112.51661923184231 -3.9756933518293994e-16 3.578124016646457e-15 8.945310041616142e-15
-2.0999999046325684 9.600000381469727 -16.5 -2.634450862814236 3.332035311738687 35.36674160882785 -6.466084067364128e-08 -4.924394832886374e-07 -1.4283445602289881 119.23401188711226 25.32837056498036 -165.056869361324 -4.457363790335253e-06 -2.5901797650557207e-07 60.56356552732894 0.0 0.0 0.0 -122.08371759041133 27.030122340096558 175.7004394040527 -1.277136303065137e-06 1.4288402050373413e-06 -61.59543970893851 -9.54166404439055e-15 5.29668755766019e-31 -6.3611093629270335e-15 -4.0650863421745616 -22.046309257870266 15.709886824125938 3.766914211110394 21.499421225722642 -38.719960679625245 1.8602308952658903e-33 -9.939233379573492e-17 2.1447002026860926e-15 -10.439415777322228 -30.982851578429614 -62.189223524176064 -48.410855722828536 29.72044841609955 136.69173327862907 4.770832022195277e-15 -3.9756933518293994e-16 -7.355032700884384e-15
